<svg width="60" height="60" viewBox="0 0 60 60" fill="none" xmlns="http://www.w3.org/2000/svg">
<path fill-rule="evenodd" clip-rule="evenodd" d="M52.2832 40.7868L50.3609 25.3002C49.1899 19.7741 45.8757 17.5 42.7161 17.5H17.3293C14.1255 17.5 10.7009 19.6149 9.7066 25.3002L7.76226 40.7868C6.17144 52.1574 12.0265 55 19.6713 55H40.3962C48.0189 55 53.6972 50.8839 52.2832 40.7868ZM22.7425 30.3714C21.5222 30.3714 20.533 29.3533 20.533 28.0973C20.533 26.8414 21.5222 25.8232 22.7425 25.8232C23.9627 25.8232 24.952 26.8414 24.952 28.0973C24.952 29.3533 23.9627 30.3714 22.7425 30.3714ZM35.0051 28.0973C35.0051 29.3533 35.9943 30.3714 37.2145 30.3714C38.4348 30.3714 39.424 29.3533 39.424 28.0973C39.424 26.8414 38.4348 25.8232 37.2145 25.8232C35.9943 25.8232 35.0051 26.8414 35.0051 28.0973Z" fill="#BEC0CA"/>
<path opacity="0.4" d="M42.4347 16.9358C42.4425 17.1297 42.4053 17.3228 42.3258 17.5H38.733C38.6634 17.3199 38.6266 17.1288 38.6242 16.9358C38.6242 12.1421 34.7247 8.25596 29.9144 8.25596C25.1041 8.25596 21.2046 12.1421 21.2046 16.9358C21.2376 17.1224 21.2376 17.3134 21.2046 17.5H17.5247C17.4918 17.3134 17.4918 17.1224 17.5247 16.9358C17.8043 10.2648 23.3125 5 30.0124 5C36.7122 5 42.2204 10.2648 42.5 16.9358H42.4347Z" fill="#BEC0CA"/>
</svg>
