<svg width="14" height="14" viewBox="0 0 14 14" fill="none" xmlns="http://www.w3.org/2000/svg">
<path d="M5.09581 12.8547V10.8101C5.0958 10.292 5.5171 9.87112 6.03895 9.86786H7.95506C8.47924 9.86786 8.90417 10.2897 8.90417 10.8101V12.8488C8.90416 13.2982 9.26934 13.6634 9.72195 13.6666H11.0292C11.6397 13.6682 12.2258 13.4285 12.6581 13.0005C13.0904 12.5724 13.3333 11.9911 13.3333 11.385V5.57721C13.3333 5.08757 13.1147 4.62312 12.7364 4.30898L8.29531 0.782825C7.519 0.166061 6.41024 0.185985 5.65692 0.830236L1.31133 4.30898C0.91515 4.61386 0.678358 5.07969 0.666656 5.57721V11.3791C0.666656 12.6425 1.69824 13.6666 2.97077 13.6666H4.24818C4.4661 13.6682 4.67565 13.5834 4.8303 13.4309C4.98496 13.2785 5.07194 13.0711 5.07193 12.8547H5.09581Z" fill="#2F4EF7"/>
</svg>
