<svg width="52" height="52" viewBox="0 0 52 52" fill="none" xmlns="http://www.w3.org/2000/svg">
<g id="Iconly/Bulk/Image 3">
<g id="Image 2">
<path id="Fill 1" d="M47.6663 31.8549V34.8526C47.6663 35.35 47.6446 35.8518 47.6012 36.3492C46.9933 43.1939 42.2388 47.6665 35.3784 47.6665H16.6209C13.1473 47.6665 10.2164 46.5391 8.11055 44.495C7.28557 43.7369 6.59085 42.8463 6.0481 41.8254C6.76453 40.9543 7.5678 40.0007 8.34936 39.0449C9.67368 37.4592 10.9546 35.8931 11.7578 34.8743C12.9519 33.3972 16.0999 29.5089 20.4636 31.3336C21.3537 31.7029 22.1353 32.2242 22.8517 32.6803C24.6102 33.8533 25.3484 34.2009 26.5858 33.5275C27.9536 32.789 28.8437 31.3336 29.7772 29.813C30.2765 29.0071 30.7759 28.2273 31.3186 27.5105C33.685 24.4259 37.3323 23.6005 40.3717 25.4251C41.8914 26.3375 43.194 27.4888 44.4098 28.6596C44.6703 28.9202 44.9309 29.1614 45.1697 29.4003C45.4953 29.7261 46.5808 30.8122 47.6663 31.8549" fill="#2F4EF7"/>
<path id="Fill 3" opacity="0.4" d="M35.4004 4.33325H16.6212C9.26144 4.33325 4.33325 9.48141 4.33325 17.1472V34.8529C4.33325 37.5226 4.94113 39.8924 6.04835 41.8257C6.76478 40.9547 7.56806 40.0011 8.34962 39.0431C9.67393 37.4596 10.9548 35.8934 11.7581 34.8746C12.9522 33.3975 16.1001 29.5092 20.4638 31.3339C21.354 31.7032 22.1355 32.2245 22.852 32.6807C24.6105 33.8537 25.3486 34.2012 26.5861 33.5257C27.9538 32.7893 28.8439 31.3339 29.7775 29.8112C30.2768 29.0075 30.7761 28.2276 31.3189 27.5108C33.6853 24.4263 37.3326 23.6008 40.372 25.4255C41.8917 26.3378 43.1943 27.4891 44.4101 28.6599C44.6706 28.9206 44.9311 29.1617 45.1699 29.4006C45.4956 29.7243 46.5811 30.8104 47.6666 31.8552V17.1472C47.6666 9.48141 42.7384 4.33325 35.4004 4.33325" fill="#2F4EF7" fill-opacity="0.6"/>
<path id="Fill 5" d="M24.8179 19.0593C24.8179 22.1112 22.2756 24.6527 19.2254 24.6527C16.1773 24.6527 13.635 22.1112 13.635 19.0593C13.635 16.0095 16.1773 13.4658 19.2254 13.4658C22.2756 13.4658 24.8179 16.0095 24.8179 19.0593" fill="#2F4EF7"/>
</g>
</g>
</svg>
