<svg width="16" height="16" viewBox="0 0 16 16" fill="none" xmlns="http://www.w3.org/2000/svg">
<path d="M8 1C9.85652 1 11.637 1.7375 12.9497 3.05025C14.2625 4.36301 15 6.14348 15 8C15 9.85652 14.2625 11.637 12.9497 12.9497C11.637 14.2625 9.85652 15 8 15C6.14348 15 4.36301 14.2625 3.05025 12.9497C1.7375 11.637 1 9.85652 1 8C1 6.14348 1.7375 4.36301 3.05025 3.05025C4.36301 1.7375 6.14348 1 8 1ZM8.371 3.992C7.557 3.992 6.919 4.223 6.446 4.685C5.962 5.147 5.731 5.785 5.731 6.599H6.985C6.985 6.137 7.073 5.774 7.26 5.521C7.469 5.213 7.81 5.07 8.294 5.07C8.668 5.07 8.965 5.169 9.174 5.378C9.372 5.587 9.482 5.873 9.482 6.236C9.482 6.511 9.383 6.775 9.185 7.017L9.053 7.171C8.338 7.809 7.909 8.271 7.766 8.568C7.612 8.865 7.546 9.228 7.546 9.646V9.8H8.811V9.646C8.811 9.382 8.866 9.151 8.976 8.931C9.075 8.733 9.218 8.546 9.416 8.381C9.944 7.919 10.263 7.622 10.362 7.512C10.626 7.16 10.769 6.709 10.769 6.159C10.769 5.488 10.549 4.96 10.109 4.575C9.669 4.179 9.086 3.992 8.371 3.992ZM8.173 10.339C7.94872 10.3329 7.73117 10.416 7.568 10.57C7.48744 10.6459 7.42414 10.7382 7.38239 10.8407C7.34064 10.9432 7.32141 11.0534 7.326 11.164C7.326 11.406 7.403 11.604 7.568 11.758C7.72994 11.9152 7.94734 12.0021 8.173 12C8.415 12 8.613 11.923 8.778 11.769C8.86027 11.6916 8.92531 11.5977 8.9689 11.4934C9.01249 11.3892 9.03365 11.277 9.031 11.164C9.03311 11.0537 9.01274 10.9442 8.97114 10.8421C8.92953 10.74 8.86756 10.6474 8.789 10.57C8.62159 10.4157 8.40058 10.3328 8.173 10.339Z" fill="#555555"/>
</svg>
